# xmcd
#
# Track frame offsets:
#	150
#	31195
#	71072
#	98555
#	138985
#	162830
#	185760
#	206002
#	223252
#	239982
#	262390
#	285717
#	306312
#	331907
#
# Disc length: 4739 seconds
# Revision: 6
# Processed by: cddbd v1.5.2PL0 Copyright (c) Steve Scherf et al.
# Submitted via: dBpowerAMP V12.0
#
DISCID=e412810e
DTITLE=Various Artist - Forever Man [CD2]
DYEAR=2015
DGENRE=Blues
TTITLE0=Eric Clapton - Badge
TTITLE1=Eric Clapton - Sunshine Of Your Love
TTITLE2=Eric Clapton - White Room
TTITLE3=Eric Clapton - Wonderful Tonight
TTITLE4=Eric Clapton - Worried Life Blues
TTITLE5=Eric Clapton - Cocaine
TTITLE6=Eric Clapton - Layla
TTITLE7=Eric Clapton - Nobody Knows You When You're Down and Out
TTITLE8=Eric Clapton - Walkin' Blues
TTITLE9=Eric Clapton And Steve Winwood - Them Changes
TTITLE10=Eric Clapton And Steve Winwood - Presence Of The Lord
TTITLE11=Eric Clapton - Hoochie Coochie Man
TTITLE12=Eric Clapton - Goin' Down Slow
TTITLE13=Eric Clapton - Over The Rainbow
EXTD=
EXTT0=
EXTT1=
EXTT2=
EXTT3=
EXTT4=
EXTT5=
EXTT6=
EXTT7=
EXTT8=
EXTT9=
EXTT10=
EXTT11=
EXTT12=
EXTT13=
PLAYORDER=
